<svg width="90" height="26" viewBox="0 0 90 26" fill="none" xmlns="http://www.w3.org/2000/svg">
<path d="M35.1566 14.7228L38.1456 5.23148C38.1874 5.09864 38.3106 5.0083 38.4499 5.0083H44.0433C44.2889 5.0083 44.4424 5.27413 44.3196 5.4868L40.1303 12.7428C40.0075 12.9555 40.1609 13.2213 40.4065 13.2213H42.9056C43.1549 13.2213 43.3078 13.4943 43.1777 13.7069L36.1782 25.1374C35.9859 25.4514 35.5026 25.2437 35.5981 24.8881L38.108 15.5394C38.1624 15.3367 38.0098 15.1376 37.8 15.1376H35.4608C35.2453 15.1376 35.0918 14.9284 35.1566 14.7228Z" fill="#425EE3"/>
<path d="M47.626 23.5101H52.4747V0.223299H47.626V23.5101Z" fill="#71C4D0"/>
<path d="M55.5294 4.52976H60.6333V0.223299H55.5294V4.52976ZM55.657 23.5101H60.5057V6.41184H55.657V23.5101Z" fill="#71C4D0"/>
<path d="M64.2941 23.5101H69.1428V10.5588H73.0027V6.60324H69.079V5.93335C69.079 4.65736 69.717 4.08316 70.8335 4.08316C71.6629 4.08316 72.3328 4.24266 73.0346 4.49786V0.478495C72.1414 0.191399 71.1206 0 69.5894 0C67.8668 0 66.559 0.446596 65.6658 1.33979C64.7726 2.23298 64.2941 3.60467 64.2941 5.48675V6.57134H62.2844V10.5588H64.2941V23.5101Z" fill="#71C4D0"/>
<path d="M82.1527 23.8929C85.2469 23.8929 87.5437 22.6807 89.1387 20.7029L86.3634 18.2466C85.0236 19.4907 83.8434 20.0011 82.2165 20.0011C80.0473 20.0011 78.5161 18.8527 78.0376 16.6516H89.9362C89.9681 16.2051 90 15.7585 90 15.3757C90 10.5269 87.3842 6.09285 81.6742 6.09285C76.6978 6.09285 73.2208 10.1122 73.2208 14.9929V15.0567C73.2208 20.2882 77.0168 23.8929 82.1527 23.8929ZM77.9738 13.6212C78.3566 11.4201 79.6645 9.98461 81.6742 9.98461C83.7158 9.98461 84.9917 11.452 85.2788 13.6212H77.9738Z" fill="#71C4D0"/>
<path d="M8.93192 23.893C12.0262 23.893 14.323 22.6809 15.918 20.7031L13.1427 18.2468C11.8029 19.4909 10.6226 20.0013 8.99572 20.0013C6.82654 20.0013 5.29535 18.8529 4.81686 16.6518H16.7154C16.7473 16.2052 16.7792 15.7586 16.7792 15.3758C16.7792 10.5271 14.1635 6.09302 8.45342 6.09302C3.47707 6.09302 0 10.1124 0 14.993V15.0568C0 20.2884 3.79607 23.893 8.93192 23.893ZM4.75306 13.6213C5.13585 11.4203 6.44374 9.98478 8.45342 9.98478C10.495 9.98478 11.771 11.4522 12.0581 13.6213H4.75306Z" fill="#242686"/>
<path d="M22.4026 23.6379H26.8047L33.5356 6.41201H28.4954L24.6355 17.864L20.8076 6.41201H15.6717L22.4026 23.6379Z" fill="#242686"/>
</svg>
